<svg xmlns="http://www.w3.org/2000/svg" viewBox="0 0 64 64">
  <rect width="64" height="64" rx="16" fill="#075985"/>
  <circle cx="42" cy="16" r="8" fill="#f5c542"/>
  <path d="M9 45c8-9 16-13 25-13s16 4 21 13v7H9z" fill="#22c55e"/>
  <path d="M21 36c1-7 1-13-2-20" fill="none" stroke="#7c2d12" stroke-width="5" stroke-linecap="round"/>
  <path d="M20 18C13 11 8 10 3 12c6-7 14-8 21 4-1-9 4-13 12-15-3 6-5 11-5 17 5-5 10-7 15-6-4 5-11 8-23 9z" fill="#34d399"/>
  <path d="M5 52c8 3 15 3 23 0s16-3 31 0" fill="none" stroke="#67e8f9" stroke-width="4" stroke-linecap="round"/>
</svg>
